<svg width="24" height="24" viewBox="0 0 24 24" fill="none" xmlns="http://www.w3.org/2000/svg">
<path d="M11.8405 8.10101C9.76803 8.10101 8.0767 9.79234 8.0767 11.8649C8.0767 13.9374 9.76803 15.6287 11.8405 15.6287C13.9131 15.6287 15.6044 13.9374 15.6044 11.8649C15.6044 9.79234 13.9131 8.10101 11.8405 8.10101ZM23.1293 11.8649C23.1293 10.3062 23.1434 8.76173 23.0559 7.20593C22.9683 5.39883 22.5561 3.79504 21.2346 2.47359C19.9104 1.14933 18.3094 0.73991 16.5023 0.652378C14.9437 0.564847 13.3992 0.578965 11.8434 0.578965C10.2848 0.578965 8.74025 0.564847 7.18445 0.652378C5.37735 0.73991 3.77355 1.15215 2.45211 2.47359C1.12785 3.79786 0.718425 5.39883 0.630894 7.20593C0.543362 8.76456 0.55748 10.3091 0.55748 11.8649C0.55748 13.4207 0.543362 14.968 0.630894 16.5238C0.718425 18.3309 1.13067 19.9347 2.45211 21.2561C3.77637 22.5804 5.37735 22.9898 7.18445 23.0773C8.74307 23.1649 10.2876 23.1508 11.8434 23.1508C13.402 23.1508 14.9465 23.1649 16.5023 23.0773C18.3094 22.9898 19.9132 22.5776 21.2346 21.2561C22.5589 19.9319 22.9683 18.3309 23.0559 16.5238C23.1462 14.968 23.1293 13.4235 23.1293 11.8649ZM11.8405 17.656C8.63577 17.656 6.04937 15.0696 6.04937 11.8649C6.04937 8.66008 8.63577 6.07367 11.8405 6.07367C15.0453 6.07367 17.6317 8.66008 17.6317 11.8649C17.6317 15.0696 15.0453 17.656 11.8405 17.656ZM17.8689 7.18899C17.1207 7.18899 16.5164 6.58474 16.5164 5.83649C16.5164 5.08824 17.1207 4.48399 17.8689 4.48399C18.6172 4.48399 19.2214 5.08824 19.2214 5.83649C19.2216 6.01417 19.1868 6.19014 19.1189 6.35433C19.051 6.51853 18.9514 6.66772 18.8258 6.79335C18.7001 6.91899 18.551 7.0186 18.3868 7.08649C18.2226 7.15438 18.0466 7.18921 17.8689 7.18899Z" fill="#2F2E2A"/>
</svg>
