<svg width="19" height="24" viewBox="0 0 19 24" fill="none" xmlns="http://www.w3.org/2000/svg">
<path d="M9.99814 0C5.11859 0 0.296875 3.25278 0.296875 8.51733C0.296875 11.8652 2.18006 13.7674 3.32139 13.7674C3.79237 13.7674 4.06325 12.4549 4.06325 12.0844C4.06325 11.6423 2.93638 10.7003 2.93638 8.85973C2.93638 5.03629 5.84676 2.32526 9.61313 2.32526C12.8515 2.32526 15.2482 4.16584 15.2482 7.5472C15.2482 10.0726 14.2355 14.8091 10.9538 14.8091C9.76987 14.8091 8.75638 13.9531 8.75638 12.7265C8.75638 10.9286 10.0118 9.18843 10.0118 7.3334C10.0118 4.18562 5.54621 4.75628 5.54621 8.5607C5.54621 9.35963 5.64589 10.2438 6.00274 10.9719C5.3461 13.7971 4.00542 18.0055 4.00542 20.9159C4.00542 21.8145 4.13401 22.6994 4.21923 23.598C4.38054 23.7791 4.29988 23.7601 4.54717 23.6696C6.94395 20.3879 6.85873 19.7465 7.94299 15.452C8.52811 16.5652 10.04 17.164 11.2384 17.164C16.2884 17.164 18.5573 12.2419 18.5573 7.80514C18.5573 3.0831 14.4767 0.00152177 9.99738 0.00152177L9.99814 0Z" fill="#2F2E2A"/>
</svg>
