<svg width="26" height="24" viewBox="0 0 26 24" fill="none" xmlns="http://www.w3.org/2000/svg">
<path d="M22.7027 3.18635L21.9954 3.89329L21.9958 3.89362L22.7027 3.18635ZM18.3265 1.37305V2.37305V1.37305ZM13.9502 3.18635L14.6573 3.89346L14.6575 3.89329L13.9502 3.18635ZM12.7577 4.37885L12.0506 5.08596L12.7577 5.79306L13.4648 5.08596L12.7577 4.37885ZM11.5652 3.18635L10.8581 3.89346V3.89346L11.5652 3.18635ZM2.8127 11.9389L3.51981 11.2317L2.8127 11.9389ZM4.0052 13.1314L3.29809 13.8385L4.0052 13.1314ZM12.7577 21.8839L12.0506 22.591L12.7577 23.2981L13.4648 22.591L12.7577 21.8839ZM21.5102 13.1314L22.2173 13.8385L21.5102 13.1314ZM22.7027 11.9389L21.9958 11.2316L21.9956 11.2317L22.7027 11.9389ZM23.41 2.47941C22.7425 1.81163 21.95 1.2819 21.0778 0.920485L20.3122 2.76815C20.9417 3.029 21.5137 3.41133 21.9954 3.89329L23.41 2.47941ZM21.0778 0.920485C20.2055 0.559069 19.2706 0.373047 18.3265 0.373047V2.37305C19.0079 2.37305 19.6826 2.50731 20.3122 2.76815L21.0778 0.920485ZM18.3265 0.373047C17.3823 0.373047 16.4474 0.559069 15.5751 0.920485L16.3407 2.76815C16.9703 2.50731 17.645 2.37305 18.3265 2.37305V0.373047ZM15.5751 0.920485C14.7029 1.2819 13.9104 1.81163 13.2429 2.47941L14.6575 3.89329C15.1392 3.41133 15.7112 3.029 16.3407 2.76815L15.5751 0.920485ZM13.2431 2.47924L12.0506 3.67174L13.4648 5.08596L14.6573 3.89346L13.2431 2.47924ZM13.4648 3.67174L12.2723 2.47924L10.8581 3.89346L12.0506 5.08596L13.4648 3.67174ZM12.2723 2.47924C10.9241 1.13105 9.09558 0.373648 7.18895 0.373649V2.37365C8.56515 2.37365 9.88498 2.92034 10.8581 3.89346L12.2723 2.47924ZM7.18895 0.373649C5.28232 0.373649 3.45379 1.13105 2.1056 2.47924L3.51981 3.89346C4.49293 2.92034 5.81276 2.37365 7.18895 2.37365V0.373649ZM2.1056 2.47924C0.757405 3.82743 0 5.65597 0 7.5626H2C2 6.1864 2.54669 4.86658 3.51981 3.89346L2.1056 2.47924ZM0 7.5626C0 9.46923 0.757405 11.2978 2.1056 12.646L3.51981 11.2317C2.54669 10.2586 2 8.9388 2 7.5626H0ZM2.1056 12.646L3.29809 13.8385L4.71231 12.4242L3.51981 11.2317L2.1056 12.646ZM3.29809 13.8385L12.0506 22.591L13.4648 21.1767L4.71231 12.4242L3.29809 13.8385ZM13.4648 22.591L22.2173 13.8385L20.8031 12.4242L12.0506 21.1767L13.4648 22.591ZM22.2173 13.8385L23.4098 12.646L21.9956 11.2317L20.8031 12.4242L22.2173 13.8385ZM23.4096 12.6461C24.0774 11.9787 24.6071 11.1862 24.9686 10.3139L23.1209 9.54833C22.86 10.1779 22.4777 10.7498 21.9958 11.2316L23.4096 12.6461ZM24.9686 10.3139C25.33 9.44167 25.516 8.50676 25.516 7.5626H23.516C23.516 8.24404 23.3817 8.9188 23.1209 9.54833L24.9686 10.3139ZM25.516 7.5626C25.516 6.61844 25.33 5.68353 24.9686 4.81128L23.1209 5.57687C23.3817 6.2064 23.516 6.88117 23.516 7.5626H25.516ZM24.9686 4.81128C24.6071 3.93904 24.0774 3.14654 23.4096 2.47908L21.9958 3.89362C22.4777 4.37536 22.86 4.94733 23.1209 5.57687L24.9686 4.81128Z" fill="#2F2E2A"/>
</svg>
