<svg width="117" height="76" viewBox="0 0 117 76" fill="none" xmlns="http://www.w3.org/2000/svg">
<path d="M12.3233 50.159H0.459825V52.6651H4.9891V66H7.79404V52.6651H12.3233V50.159ZM25.199 66H28.1648L22.2331 50.159H19.1982L13.2435 66H16.2324L17.5889 62.1145H23.8195L25.199 66ZM18.4395 59.6774L20.7157 53.2398L22.9688 59.6774H18.4395ZM50.1118 66L48.1805 50.159H45.7435L40.6164 61.0569L35.4664 50.159H33.0293L31.098 66H33.903L35.1905 55.378L39.4898 64.2067H41.766L46.0423 55.355L47.3069 66H50.1118ZM55.1402 66H57.9452V50.159H55.1402V66ZM78.4302 66.2759C82.8445 66.2759 85.9484 63.6089 85.9484 57.8381H78.3612V60.1832H82.8905C82.8905 62.2294 80.7293 63.7469 78.3842 63.7469C75.3494 63.7469 73.0962 61.1259 73.0962 58.114C73.0962 55.0562 75.3724 52.4811 78.3382 52.4811C79.7637 52.4811 81.0512 53.0789 81.9939 54.0215L84.0171 52.2512C82.6376 50.8028 80.6144 49.8831 78.3382 49.8831C73.809 49.8831 70.2683 53.6077 70.2683 58.114C70.2683 62.5743 73.763 66.2759 78.4302 66.2759ZM93.3242 63.494V59.4935H99.3939V56.9414H93.3242V52.6651H100.268V50.159H90.5423V66H100.498V63.494H93.3242ZM108.298 63.494V59.4935H114.368V56.9414H108.298V52.6651H115.242V50.159H105.516V66H115.471V63.494H108.298Z" fill="#2F2E2A"/>
<path fill-rule="evenodd" clip-rule="evenodd" d="M55.9 0.0864388C55.6817 0.149039 55.4869 0.312739 55.3079 0.583877C55.0839 0.923471 49.7704 7.83105 49.2477 8.46242C49.0926 8.64974 49.0732 9.06471 49.0384 12.9281L49 17.1872L49.264 17.4887C49.5748 17.8437 53.9739 23.5295 54.8708 24.7355C55.9014 26.1211 55.511 25.9997 58.919 25.9957C61.0328 25.9932 61.9083 25.9597 62.0645 25.8752C62.2615 25.7687 62.9754 24.8853 64.9128 22.3506C65.2962 21.849 66.3728 20.4513 67.305 19.2448L69 17.0509V12.9449V8.83908L68.4302 8.12993C68.1169 7.73993 67.5088 6.94553 67.0789 6.36466C66.649 5.78379 65.5077 4.27947 64.5429 3.02172C63.578 1.76396 62.7127 0.609992 62.6201 0.457237C62.4966 0.253788 62.3374 0.155952 62.0251 0.0910478C61.4534 -0.0276229 56.3113 -0.0314638 55.9 0.0864388ZM61.0121 1.42129C61.1148 1.47477 61.4095 1.80966 61.6669 2.16539C61.9244 2.52111 62.5573 3.35228 63.0733 4.01237C63.5894 4.67245 64.4297 5.75258 64.9408 6.41267C65.4519 7.07275 66.146 7.93685 66.4832 8.3329C67.3849 9.39182 67.323 9.04838 67.323 12.998V16.5236L65.6811 18.645C64.7779 19.8118 63.8528 20.9825 63.6252 21.2465C63.3974 21.5105 62.7633 22.3129 62.2158 23.0295C61.6684 23.7461 61.1519 24.3878 61.0681 24.4556C60.9098 24.5834 57.4637 24.6345 57.0762 24.5148C56.9756 24.4836 56.4324 23.8502 55.8688 23.1069C55.3054 22.3636 54.5954 21.4442 54.2912 21.0636C53.987 20.6831 53.0658 19.5019 52.2443 18.4386L50.7505 16.5055L50.7511 12.9713L50.7518 9.43704L52.4527 7.23702C53.3883 6.02698 54.6992 4.32037 55.3659 3.44455C56.0326 2.56873 56.7102 1.73324 56.8718 1.58807L57.1656 1.32403H58.9955C60.0426 1.32403 60.9052 1.36561 61.0121 1.42129ZM57.8912 3.71723C57.6501 3.81804 56.7659 4.87321 55.4313 6.6525C54.9163 7.33908 54.0964 8.3957 53.6092 9.00038C52.466 10.4195 52.4667 10.3773 53.5614 11.748C54.0223 12.3253 54.3996 12.8746 54.3999 12.9688C54.4002 13.063 54.0236 13.6031 53.5629 14.169C52.7198 15.2048 52.4913 15.7669 52.8304 15.9708C52.8892 16.0063 53.2412 16.4301 53.6126 16.9126C53.984 17.3953 54.5241 18.0928 54.8127 18.4628C55.1014 18.8329 55.5103 19.3729 55.7216 19.663C56.6784 20.9765 57.6863 22.1477 57.9519 22.2547C58.1283 22.3259 58.5928 22.3568 59.173 22.3361C60.2813 22.2965 60.2762 22.2999 61.3887 20.8374C61.7799 20.3232 62.8109 18.9734 63.6799 17.8381C65.4632 15.5082 65.4887 15.4409 64.8667 14.699C64.3279 14.0563 63.5745 13.0316 63.5745 12.9416C63.5745 12.8937 63.935 12.3897 64.3758 11.8217C65.5754 10.2756 65.6805 10.6461 63.0874 7.27677C61.8885 5.71898 60.7595 4.27246 60.5786 4.06239L60.2497 3.68036L59.1747 3.6552C58.5834 3.64138 58.0058 3.66932 57.8912 3.71723ZM60.587 6.94073C61.3582 7.94406 62.2571 9.09658 62.5846 9.50194C63.3211 10.414 63.3224 10.3797 62.514 11.3711C61.1886 12.9966 61.1877 13.0094 62.3231 14.3357C63.3774 15.5672 63.3658 15.5278 62.842 16.1017C62.6054 16.3611 62.0981 16.9984 61.715 17.5178C60.359 19.3558 59.2115 20.7668 59.0506 20.7941C58.8826 20.8225 58.5042 20.4214 57.8016 19.4703C57.587 19.1799 56.8228 18.1954 56.1032 17.2827C55.3837 16.3699 54.795 15.5802 54.795 15.5278C54.795 15.4051 55.8807 14.0212 56.2158 13.7169C56.723 13.256 56.6001 12.7503 55.7226 11.6882C54.6204 10.354 54.6309 10.5352 55.5848 9.3226C56.0338 8.7519 56.9575 7.55953 57.6375 6.67286C58.4471 5.6174 58.9276 5.07051 59.0293 5.08866C59.1148 5.10402 59.8158 5.93741 60.587 6.94073Z" fill="#2F2E2A"/>
</svg>
