<svg width="24" height="24" viewBox="0 0 24 24" fill="none" xmlns="http://www.w3.org/2000/svg">
<path d="M11.8386 8.10101C9.76608 8.10101 8.07475 9.79234 8.07475 11.8649C8.07475 13.9374 9.76608 15.6287 11.8386 15.6287C13.9111 15.6287 15.6024 13.9374 15.6024 11.8649C15.6024 9.79234 13.9111 8.10101 11.8386 8.10101ZM23.1273 11.8649C23.1273 10.3062 23.1414 8.76173 23.0539 7.20593C22.9664 5.39883 22.5541 3.79504 21.2327 2.47359C19.9084 1.14933 18.3074 0.73991 16.5003 0.652378C14.9417 0.564847 13.3972 0.578965 11.8414 0.578965C10.2828 0.578965 8.73829 0.564847 7.1825 0.652378C5.3754 0.73991 3.7716 1.15215 2.45016 2.47359C1.12589 3.79786 0.716472 5.39883 0.628941 7.20593C0.541409 8.76456 0.555527 10.3091 0.555527 11.8649C0.555527 13.4207 0.541409 14.968 0.628941 16.5238C0.716472 18.3309 1.12872 19.9347 2.45016 21.2561C3.77442 22.5804 5.3754 22.9898 7.1825 23.0773C8.74112 23.1649 10.2856 23.1508 11.8414 23.1508C13.4 23.1508 14.9445 23.1649 16.5003 23.0773C18.3074 22.9898 19.9112 22.5776 21.2327 21.2561C22.5569 19.9319 22.9664 18.3309 23.0539 16.5238C23.1443 14.968 23.1273 13.4235 23.1273 11.8649ZM11.8386 17.656C8.63382 17.656 6.04741 15.0696 6.04741 11.8649C6.04741 8.66008 8.63382 6.07367 11.8386 6.07367C15.0434 6.07367 17.6298 8.66008 17.6298 11.8649C17.6298 15.0696 15.0434 17.656 11.8386 17.656ZM17.867 7.18899C17.1187 7.18899 16.5145 6.58474 16.5145 5.83649C16.5145 5.08824 17.1187 4.48399 17.867 4.48399C18.6152 4.48399 19.2195 5.08824 19.2195 5.83649C19.2197 6.01417 19.1849 6.19014 19.117 6.35433C19.0491 6.51853 18.9495 6.66772 18.8238 6.79335C18.6982 6.91899 18.549 7.0186 18.3848 7.08649C18.2206 7.15438 18.0446 7.18921 17.867 7.18899Z" fill="#2F2E2A"/>
</svg>
